<svg xmlns="http://www.w3.org/2000/svg" width="60" height="60" viewBox="0 0 60 60">
  <!-- P-Hacker guilloche weave — seamless 60x60 tile. Tile with background-repeat or <pattern>.
       stroke=currentColor: set CSS `color` to theme; no fixed card size. -->
  <g fill="none" stroke="currentColor" stroke-width="0.9" stroke-linecap="round"><path d="M 0.00 6.00 L 1.25 7.04 L 2.50 8.00 L 3.75 8.83 L 5.00 9.46 L 6.25 9.86 L 7.50 10.00 L 8.75 9.86 L 10.00 9.46 L 11.25 8.83 L 12.50 8.00 L 13.75 7.04 L 15.00 6.00 L 16.25 4.96 L 17.50 4.00 L 18.75 3.17 L 20.00 2.54 L 21.25 2.14 L 22.50 2.00 L 23.75 2.14 L 25.00 2.54 L 26.25 3.17 L 27.50 4.00 L 28.75 4.96 L 30.00 6.00 L 31.25 7.04 L 32.50 8.00 L 33.75 8.83 L 35.00 9.46 L 36.25 9.86 L 37.50 10.00 L 38.75 9.86 L 40.00 9.46 L 41.25 8.83 L 42.50 8.00 L 43.75 7.04 L 45.00 6.00 L 46.25 4.96 L 47.50 4.00 L 48.75 3.17 L 50.00 2.54 L 51.25 2.14 L 52.50 2.00 L 53.75 2.14 L 55.00 2.54 L 56.25 3.17 L 57.50 4.00 L 58.75 4.96 L 60.00 6.00"/><path d="M 0.00 18.00 L 1.25 19.04 L 2.50 20.00 L 3.75 20.83 L 5.00 21.46 L 6.25 21.86 L 7.50 22.00 L 8.75 21.86 L 10.00 21.46 L 11.25 20.83 L 12.50 20.00 L 13.75 19.04 L 15.00 18.00 L 16.25 16.96 L 17.50 16.00 L 18.75 15.17 L 20.00 14.54 L 21.25 14.14 L 22.50 14.00 L 23.75 14.14 L 25.00 14.54 L 26.25 15.17 L 27.50 16.00 L 28.75 16.96 L 30.00 18.00 L 31.25 19.04 L 32.50 20.00 L 33.75 20.83 L 35.00 21.46 L 36.25 21.86 L 37.50 22.00 L 38.75 21.86 L 40.00 21.46 L 41.25 20.83 L 42.50 20.00 L 43.75 19.04 L 45.00 18.00 L 46.25 16.96 L 47.50 16.00 L 48.75 15.17 L 50.00 14.54 L 51.25 14.14 L 52.50 14.00 L 53.75 14.14 L 55.00 14.54 L 56.25 15.17 L 57.50 16.00 L 58.75 16.96 L 60.00 18.00"/><path d="M 0.00 30.00 L 1.25 31.04 L 2.50 32.00 L 3.75 32.83 L 5.00 33.46 L 6.25 33.86 L 7.50 34.00 L 8.75 33.86 L 10.00 33.46 L 11.25 32.83 L 12.50 32.00 L 13.75 31.04 L 15.00 30.00 L 16.25 28.96 L 17.50 28.00 L 18.75 27.17 L 20.00 26.54 L 21.25 26.14 L 22.50 26.00 L 23.75 26.14 L 25.00 26.54 L 26.25 27.17 L 27.50 28.00 L 28.75 28.96 L 30.00 30.00 L 31.25 31.04 L 32.50 32.00 L 33.75 32.83 L 35.00 33.46 L 36.25 33.86 L 37.50 34.00 L 38.75 33.86 L 40.00 33.46 L 41.25 32.83 L 42.50 32.00 L 43.75 31.04 L 45.00 30.00 L 46.25 28.96 L 47.50 28.00 L 48.75 27.17 L 50.00 26.54 L 51.25 26.14 L 52.50 26.00 L 53.75 26.14 L 55.00 26.54 L 56.25 27.17 L 57.50 28.00 L 58.75 28.96 L 60.00 30.00"/><path d="M 0.00 42.00 L 1.25 43.04 L 2.50 44.00 L 3.75 44.83 L 5.00 45.46 L 6.25 45.86 L 7.50 46.00 L 8.75 45.86 L 10.00 45.46 L 11.25 44.83 L 12.50 44.00 L 13.75 43.04 L 15.00 42.00 L 16.25 40.96 L 17.50 40.00 L 18.75 39.17 L 20.00 38.54 L 21.25 38.14 L 22.50 38.00 L 23.75 38.14 L 25.00 38.54 L 26.25 39.17 L 27.50 40.00 L 28.75 40.96 L 30.00 42.00 L 31.25 43.04 L 32.50 44.00 L 33.75 44.83 L 35.00 45.46 L 36.25 45.86 L 37.50 46.00 L 38.75 45.86 L 40.00 45.46 L 41.25 44.83 L 42.50 44.00 L 43.75 43.04 L 45.00 42.00 L 46.25 40.96 L 47.50 40.00 L 48.75 39.17 L 50.00 38.54 L 51.25 38.14 L 52.50 38.00 L 53.75 38.14 L 55.00 38.54 L 56.25 39.17 L 57.50 40.00 L 58.75 40.96 L 60.00 42.00"/><path d="M 0.00 54.00 L 1.25 55.04 L 2.50 56.00 L 3.75 56.83 L 5.00 57.46 L 6.25 57.86 L 7.50 58.00 L 8.75 57.86 L 10.00 57.46 L 11.25 56.83 L 12.50 56.00 L 13.75 55.04 L 15.00 54.00 L 16.25 52.96 L 17.50 52.00 L 18.75 51.17 L 20.00 50.54 L 21.25 50.14 L 22.50 50.00 L 23.75 50.14 L 25.00 50.54 L 26.25 51.17 L 27.50 52.00 L 28.75 52.96 L 30.00 54.00 L 31.25 55.04 L 32.50 56.00 L 33.75 56.83 L 35.00 57.46 L 36.25 57.86 L 37.50 58.00 L 38.75 57.86 L 40.00 57.46 L 41.25 56.83 L 42.50 56.00 L 43.75 55.04 L 45.00 54.00 L 46.25 52.96 L 47.50 52.00 L 48.75 51.17 L 50.00 50.54 L 51.25 50.14 L 52.50 50.00 L 53.75 50.14 L 55.00 50.54 L 56.25 51.17 L 57.50 52.00 L 58.75 52.96 L 60.00 54.00"/><path d="M 6.00 0.00 L 7.04 1.25 L 8.00 2.50 L 8.83 3.75 L 9.46 5.00 L 9.86 6.25 L 10.00 7.50 L 9.86 8.75 L 9.46 10.00 L 8.83 11.25 L 8.00 12.50 L 7.04 13.75 L 6.00 15.00 L 4.96 16.25 L 4.00 17.50 L 3.17 18.75 L 2.54 20.00 L 2.14 21.25 L 2.00 22.50 L 2.14 23.75 L 2.54 25.00 L 3.17 26.25 L 4.00 27.50 L 4.96 28.75 L 6.00 30.00 L 7.04 31.25 L 8.00 32.50 L 8.83 33.75 L 9.46 35.00 L 9.86 36.25 L 10.00 37.50 L 9.86 38.75 L 9.46 40.00 L 8.83 41.25 L 8.00 42.50 L 7.04 43.75 L 6.00 45.00 L 4.96 46.25 L 4.00 47.50 L 3.17 48.75 L 2.54 50.00 L 2.14 51.25 L 2.00 52.50 L 2.14 53.75 L 2.54 55.00 L 3.17 56.25 L 4.00 57.50 L 4.96 58.75 L 6.00 60.00"/><path d="M 18.00 0.00 L 19.04 1.25 L 20.00 2.50 L 20.83 3.75 L 21.46 5.00 L 21.86 6.25 L 22.00 7.50 L 21.86 8.75 L 21.46 10.00 L 20.83 11.25 L 20.00 12.50 L 19.04 13.75 L 18.00 15.00 L 16.96 16.25 L 16.00 17.50 L 15.17 18.75 L 14.54 20.00 L 14.14 21.25 L 14.00 22.50 L 14.14 23.75 L 14.54 25.00 L 15.17 26.25 L 16.00 27.50 L 16.96 28.75 L 18.00 30.00 L 19.04 31.25 L 20.00 32.50 L 20.83 33.75 L 21.46 35.00 L 21.86 36.25 L 22.00 37.50 L 21.86 38.75 L 21.46 40.00 L 20.83 41.25 L 20.00 42.50 L 19.04 43.75 L 18.00 45.00 L 16.96 46.25 L 16.00 47.50 L 15.17 48.75 L 14.54 50.00 L 14.14 51.25 L 14.00 52.50 L 14.14 53.75 L 14.54 55.00 L 15.17 56.25 L 16.00 57.50 L 16.96 58.75 L 18.00 60.00"/><path d="M 30.00 0.00 L 31.04 1.25 L 32.00 2.50 L 32.83 3.75 L 33.46 5.00 L 33.86 6.25 L 34.00 7.50 L 33.86 8.75 L 33.46 10.00 L 32.83 11.25 L 32.00 12.50 L 31.04 13.75 L 30.00 15.00 L 28.96 16.25 L 28.00 17.50 L 27.17 18.75 L 26.54 20.00 L 26.14 21.25 L 26.00 22.50 L 26.14 23.75 L 26.54 25.00 L 27.17 26.25 L 28.00 27.50 L 28.96 28.75 L 30.00 30.00 L 31.04 31.25 L 32.00 32.50 L 32.83 33.75 L 33.46 35.00 L 33.86 36.25 L 34.00 37.50 L 33.86 38.75 L 33.46 40.00 L 32.83 41.25 L 32.00 42.50 L 31.04 43.75 L 30.00 45.00 L 28.96 46.25 L 28.00 47.50 L 27.17 48.75 L 26.54 50.00 L 26.14 51.25 L 26.00 52.50 L 26.14 53.75 L 26.54 55.00 L 27.17 56.25 L 28.00 57.50 L 28.96 58.75 L 30.00 60.00"/><path d="M 42.00 0.00 L 43.04 1.25 L 44.00 2.50 L 44.83 3.75 L 45.46 5.00 L 45.86 6.25 L 46.00 7.50 L 45.86 8.75 L 45.46 10.00 L 44.83 11.25 L 44.00 12.50 L 43.04 13.75 L 42.00 15.00 L 40.96 16.25 L 40.00 17.50 L 39.17 18.75 L 38.54 20.00 L 38.14 21.25 L 38.00 22.50 L 38.14 23.75 L 38.54 25.00 L 39.17 26.25 L 40.00 27.50 L 40.96 28.75 L 42.00 30.00 L 43.04 31.25 L 44.00 32.50 L 44.83 33.75 L 45.46 35.00 L 45.86 36.25 L 46.00 37.50 L 45.86 38.75 L 45.46 40.00 L 44.83 41.25 L 44.00 42.50 L 43.04 43.75 L 42.00 45.00 L 40.96 46.25 L 40.00 47.50 L 39.17 48.75 L 38.54 50.00 L 38.14 51.25 L 38.00 52.50 L 38.14 53.75 L 38.54 55.00 L 39.17 56.25 L 40.00 57.50 L 40.96 58.75 L 42.00 60.00"/><path d="M 54.00 0.00 L 55.04 1.25 L 56.00 2.50 L 56.83 3.75 L 57.46 5.00 L 57.86 6.25 L 58.00 7.50 L 57.86 8.75 L 57.46 10.00 L 56.83 11.25 L 56.00 12.50 L 55.04 13.75 L 54.00 15.00 L 52.96 16.25 L 52.00 17.50 L 51.17 18.75 L 50.54 20.00 L 50.14 21.25 L 50.00 22.50 L 50.14 23.75 L 50.54 25.00 L 51.17 26.25 L 52.00 27.50 L 52.96 28.75 L 54.00 30.00 L 55.04 31.25 L 56.00 32.50 L 56.83 33.75 L 57.46 35.00 L 57.86 36.25 L 58.00 37.50 L 57.86 38.75 L 57.46 40.00 L 56.83 41.25 L 56.00 42.50 L 55.04 43.75 L 54.00 45.00 L 52.96 46.25 L 52.00 47.50 L 51.17 48.75 L 50.54 50.00 L 50.14 51.25 L 50.00 52.50 L 50.14 53.75 L 50.54 55.00 L 51.17 56.25 L 52.00 57.50 L 52.96 58.75 L 54.00 60.00"/></g>
</svg>